<?xml version="1.0" standalone="no"?><!DOCTYPE svg PUBLIC "-//W3C//DTD SVG 1.1//EN" "http://www.w3.org/Graphics/SVG/1.1/DTD/svg11.dtd"><svg t="1621563735321" class="icon" viewBox="0 0 1024 1024" version="1.1" xmlns="http://www.w3.org/2000/svg" p-id="1222" xmlns:xlink="http://www.w3.org/1999/xlink" width="200" height="200"><defs><style type="text/css"></style></defs><path d="M512.036 1024C229.322 1024 0 794.787 0 512S229.322 0 512.036 0c282.75 0 512 229.25 512 512s-229.25 512-512 512z" fill="#DE2910" p-id="1223"></path><path d="M252.586 108.339l34.319 101.367h111.193l-90.168 66.072 33.343 100.5-88.615-59.714-88.795 59.714 33.344-100.5-89.41-66.072H218.99l33.596-101.367z m362.479 202.228l11.054 32.801h36.089l-29.261 21.495 10.801 32.548-28.72-19.363-28.791 19.363 10.91-32.548-29.081-21.495h36.089l10.91-32.801z m-24.096-149.775l24.493 24.493 32.26-15.895-16.618 32.08 24.096 24.42-34.32-4.588-17.23 30.056-4.77-34.066-35.402-6.286 32.332-15.895-4.84-34.319zM473.382 74.923l32.621 11.922 22.506-28.178-1.517 36.161 32.187 11.921-33.09 10.26-2.746 34.572-18.749-28.792-34.788 9.284 22.506-28.177-18.93-28.973z m0 356.735l32.621 11.849 22.506-28.033-1.517 36.089 32.187 11.921-33.09 10.332-2.746 34.571-18.749-28.791-34.788 9.212 22.506-28.033-18.93-29.117z" fill="#FFDC00" p-id="1224"></path></svg>