<?xml version="1.0" standalone="no"?><!DOCTYPE svg PUBLIC "-//W3C//DTD SVG 1.1//EN" "http://www.w3.org/Graphics/SVG/1.1/DTD/svg11.dtd"><svg t="1621563898428" class="icon" viewBox="0 0 1024 1024" version="1.1" xmlns="http://www.w3.org/2000/svg" p-id="2263" xmlns:xlink="http://www.w3.org/1999/xlink" width="200" height="200"><defs><style type="text/css"></style></defs><path d="M0 511.993053c0 282.77022 229.222833 511.993053 511.993053 511.993053s511.993053-229.222833 511.993053-511.993053S794.763273 0 511.993053 0 0 229.222833 0 511.993053z" fill="#D42D1F" p-id="2264"></path><path d="M108.78984 192.000868c-63.995658 89.588364-108.78984 198.392098-108.78984 319.992185s44.794182 236.79505 115.194963 319.992185h793.59618c70.400782-89.602258 115.194963-198.405992 115.194963-319.992185s-44.794182-230.403821-108.803734-319.992185H108.78984z" fill="#FFFFFF" p-id="2265"></path><path d="M31.997829 339.193661C12.796353 390.392966 0 447.997395 0 511.993053s12.796353 121.600087 31.997829 179.204516h959.990448c19.201476-57.604429 31.997829-115.194963 31.997829-179.204516s-12.796353-121.600087-31.997829-172.799392H31.997829z" fill="#012094" p-id="2266"></path></svg>