<?xml version="1.0" standalone="no"?><!DOCTYPE svg PUBLIC "-//W3C//DTD SVG 1.1//EN" "http://www.w3.org/Graphics/SVG/1.1/DTD/svg11.dtd"><svg t="1621564390986" class="icon" viewBox="0 0 1024 1024" version="1.1" xmlns="http://www.w3.org/2000/svg" p-id="4320" xmlns:xlink="http://www.w3.org/1999/xlink" width="200" height="200"><defs><style type="text/css"></style></defs><path d="M785.277 78.724A506.878 506.878 0 0 0 511.998 0.004v78.72z" fill="#ED4C5C" p-id="4321"></path><path d="M511.998 157.443h369.279a519.678 519.678 0 0 0-96.64-78.72H511.998z" fill="#FFFFFF" p-id="4322"></path><path d="M511.998 236.163h431.358a524.798 524.798 0 0 0-64-78.72H511.999z" fill="#ED4C5C" p-id="4323"></path><path d="M511.998 314.883h473.598a511.998 511.998 0 0 0-41.6-78.72H511.998z" fill="#FFFFFF" p-id="4324"></path><path d="M511.998 393.602h497.918a511.998 511.998 0 0 0-24.96-78.72H511.998z" fill="#ED4C5C" p-id="4325"></path><path d="M511.998 472.322h511.998a531.198 531.198 0 0 0-12.8-78.72H511.998z" fill="#FFFFFF" p-id="4326"></path><path d="M1023.996 472.322H511.998v39.68H0v39.04h1023.996v-78.72z" fill="#ED4C5C" p-id="4327"></path><path d="M14.72 629.121h996.476a522.238 522.238 0 0 0 12.8-78.08H0a447.998 447.998 0 0 0 14.72 78.08z" fill="#FFFFFF" p-id="4328"></path><path d="M39.68 707.841h945.916a453.118 453.118 0 0 0 25.6-78.72H14.72a511.998 511.998 0 0 0 24.96 78.72z" fill="#ED4C5C" p-id="4329"></path><path d="M80.64 786.56h863.996a459.518 459.518 0 0 0 40.96-78.719H39.68a575.998 575.998 0 0 0 40.96 78.72z" fill="#FFFFFF" p-id="4330"></path><path d="M142.72 865.28h740.477a490.878 490.878 0 0 0 64-78.72H80.64a533.758 533.758 0 0 0 62.08 78.72z" fill="#ED4C5C" p-id="4331"></path><path d="M238.08 944h549.117a515.838 515.838 0 0 0 96-78.72H142.719A511.998 511.998 0 0 0 238.08 944z" fill="#FFFFFF" p-id="4332"></path><path d="M511.998 1024a511.998 511.998 0 0 0 274.56-80H238.078A511.998 511.998 0 0 0 512 1024z" fill="#ED4C5C" p-id="4333"></path><path d="M240 78.724a515.838 515.838 0 0 0-96 78.72 487.038 487.038 0 0 0-64 78.719 511.998 511.998 0 0 0-39.68 78.72 453.118 453.118 0 0 0-25.6 78.72A530.558 530.558 0 0 0 0 472.322v39.679h511.998V0.004A511.998 511.998 0 0 0 240 78.724z" fill="#428BC1" p-id="4334"></path><path d="M392.959 17.284l8.32 24.96h26.24l-21.12 16.64 7.68 26.24-21.12-15.36-21.12 15.36 8.32-26.24-21.12-16.64h26.24l7.68-24.96z m68.48 102.4l8.32 24.96h25.6l-21.12 16.64 8.32 26.24-21.12-15.36-21.12 15.36 8.32-26.24-21.12-16.64h25.6l8.32-24.96z m-136.32 0l7.68 24.96h26.24l-21.12 16.64 8.32 26.24-21.12-15.36-21.12 15.36 7.68-26.24-21.12-16.64h26.24l8.32-24.96z m67.84 102.399l8.32 24.96h26.24l-21.12 16.64 7.68 26.24-21.12-15.36-21.12 15.36 8.32-26.24-21.12-16.64h26.24l7.68-24.96z m-136.32 0l8.32 24.96h25.6l-21.12 16.64 8.32 26.24-21.12-15.36-21.12 15.36 8.32-26.24-21.12-16.64h25.6l8.32-24.96z m-136.32 0l7.68 24.96h26.24l-21.12 16.64 8.32 26.24-21.12-15.36-21.12 15.36 7.68-26.24-21.12-16.64H112l8.32-24.96z m341.12 102.4l8.32 24.96h25.6l-21.12 16.64 8.32 26.24-21.12-15.36-21.12 15.36 8.32-26.24-21.12-16.64h25.6l8.32-24.96z m-136.32 0l7.68 24.96h26.24l-21.12 16.64 8.32 26.24-21.12-15.36-21.12 15.36 7.68-26.24-21.12-16.64h26.24l8.32-24.96z m-136.96 0l8.32 24.96h26.24l-21.12 16.64 7.68 26.24-21.12-15.36-21.12 15.36 8.32-26.24-21.12-16.64h26.24l7.68-24.96z m204.8 102.4l8.32 24.96h26.24l-21.12 16.64 7.68 26.239-21.12-15.36-21.12 15.36 8.32-26.24-21.12-16.64h26.24l7.68-24.96z m-136.32 0l8.32 24.96h25.6l-21.12 16.64 8.32 26.239-21.12-15.36-21.12 15.36 8.32-26.24-21.12-16.64h25.6l8.32-24.96z m-136.32 0l7.68 24.96h26.24l-21.12 16.64 8.32 26.239-21.12-15.36-21.12 15.36 7.68-26.24-21.12-16.64H112l8.32-24.96z m47.36-239.36l24.32-15.36 21.12 15.36-8.32-26.24 21.12-16.64h-29.44l-4.48-24.96-8.32 24.96h-28.16l19.84 16z m-136.96 204.8l21.12-15.36 21.12 15.36-8.96-26.24 21.12-16.64H60.16l-8.32-24.96-7.68 24.96H27.52v5.76l14.08 10.88z" fill="#FFFFFF" p-id="4335"></path></svg>